# xmcd
#
# Track frame offsets: 
#        150
#        19275
#        30752
#        48175
#        64485
#        88787
#        105895
#        121737
#        140255
#        150812
#        167770
#        187445
#
# Disc length: 3350 seconds
#
# Revision: 4
# Processed by: cddbd v1.5.2PL0 Copyright (c) Steve Scherf et al.
# Submitted via: ExactAudioCopyFreeDBPlugin 1.0
#
DISCID=8f0d140c
DTITLE=Placebo - Black Market Music
DYEAR=2000
DGENRE=Alternative
TTITLE0=Taste In Men
TTITLE1=Days Before You Came
TTITLE2=Special K
TTITLE3=Spite and Malice
TTITLE4=Passive Agressive
TTITLE5=Black-Eyed
TTITLE6=Blue American
TTITLE7=Slave To The Wage
TTITLE8=Commercial For Levi
TTITLE9=Haemoglobin
TTITLE10=Narcoleptic
TTITLE11=Peeping Tom
EXTD=
EXTT0=
EXTT1=
EXTT2=
EXTT3=
EXTT4=
EXTT5=
EXTT6=
EXTT7=
EXTT8=
EXTT9=
EXTT10=
EXTT11=
PLAYORDER=
